<svg width="24" height="24" viewBox="0 0 24 24" fill="none" xmlns="http://www.w3.org/2000/svg">
<path fill-rule="evenodd" clip-rule="evenodd" d="M9 3C7.89543 3 7 3.89543 7 5V7H17V5C17 3.89543 16.1046 3 15 3H9ZM11 4.25C10.5858 4.25 10.25 4.58579 10.25 5C10.25 5.41421 10.5858 5.75 11 5.75H13C13.4142 5.75 13.75 5.41421 13.75 5C13.75 4.58579 13.4142 4.25 13 4.25H11Z" fill="white"/>
<path fill-rule="evenodd" clip-rule="evenodd" d="M2 10C2 8.89543 2.89543 8 4 8H20C21.1046 8 22 8.89543 22 10V18C22 19.1046 21.1046 20 20 20H4C2.89543 20 2 19.1046 2 18V10ZM12 11.0906C10.3931 11.0906 9.09052 12.3932 9.09052 14.0001C9.09052 15.6069 10.3931 16.9095 12 16.9095C13.6069 16.9095 14.9095 15.6069 14.9095 14.0001C14.9095 12.3932 13.6069 11.0906 12 11.0906ZM7.59052 14.0001C7.59052 11.5648 9.56471 9.59058 12 9.59058C14.4353 9.59058 16.4095 11.5648 16.4095 14.0001C16.4095 16.4353 14.4353 18.4095 12 18.4095C9.56471 18.4095 7.59052 16.4353 7.59052 14.0001ZM5 10.25C4.58579 10.25 4.25 10.5858 4.25 11C4.25 11.4142 4.58579 11.75 5 11.75H7C7.41421 11.75 7.75 11.4142 7.75 11C7.75 10.5858 7.41421 10.25 7 10.25H5Z" fill="white"/>
</svg>
