<svg width="15" height="15" viewBox="0 0 15 15" fill="none" xmlns="http://www.w3.org/2000/svg">
<path d="M5.86187 14.0376C5.86187 14.1604 5.81311 14.2781 5.72632 14.3649C5.63953 14.4516 5.52182 14.5004 5.39909 14.5004H1.07982C0.793432 14.5004 0.518776 14.3866 0.316271 14.1841C0.113766 13.9816 0 13.707 0 13.4206V1.07982C0 0.793432 0.113766 0.518776 0.316271 0.316271C0.518776 0.113766 0.793432 0 1.07982 0H5.39909C5.52182 0 5.63953 0.0487569 5.72632 0.135545C5.81311 0.222333 5.86187 0.340042 5.86187 0.462779C5.86187 0.585515 5.81311 0.703225 5.72632 0.790013C5.63953 0.876801 5.52182 0.925558 5.39909 0.925558H1.07982C1.03891 0.925558 0.999669 0.94181 0.970739 0.970739C0.94181 0.999669 0.925558 1.03891 0.925558 1.07982V13.4206C0.925558 13.4615 0.94181 13.5007 0.970739 13.5297C0.999669 13.5586 1.03891 13.5748 1.07982 13.5748H5.39909C5.52182 13.5748 5.63953 13.6236 5.72632 13.7104C5.81311 13.7972 5.86187 13.9149 5.86187 14.0376ZM14.3647 6.92317L11.2795 3.83798C11.1917 3.75623 11.0757 3.71173 10.9558 3.71385C10.8359 3.71596 10.7215 3.76453 10.6367 3.84932C10.552 3.93411 10.5034 4.0485 10.5013 4.16839C10.4992 4.28828 10.5437 4.40431 10.6254 4.49204L12.92 6.78742H5.39909C5.27635 6.78742 5.15864 6.83618 5.07185 6.92297C4.98507 7.00976 4.93631 7.12747 4.93631 7.2502C4.93631 7.37294 4.98507 7.49065 5.07185 7.57744C5.15864 7.66422 5.27635 7.71298 5.39909 7.71298H12.92L10.6254 10.0084C10.5799 10.0507 10.5435 10.1018 10.5182 10.1586C10.4929 10.2154 10.4793 10.2766 10.4782 10.3388C10.4771 10.4009 10.4885 10.4626 10.5118 10.5203C10.5351 10.5779 10.5697 10.6302 10.6137 10.6742C10.6576 10.7181 10.7099 10.7528 10.7676 10.776C10.8252 10.7993 10.8869 10.8107 10.9491 10.8096C11.0112 10.8085 11.0725 10.7949 11.1292 10.7697C11.186 10.7444 11.2371 10.7079 11.2795 10.6624L14.3647 7.57723C14.4513 7.49046 14.5 7.37284 14.5 7.2502C14.5 7.12757 14.4513 7.00994 14.3647 6.92317Z" fill="#9B9B9B"/>
</svg>
