<svg width="25" height="25" viewBox="0 0 25 25" fill="none" xmlns="http://www.w3.org/2000/svg">
<path d="M10.5 23.75C10.5 23.9489 10.421 24.1397 10.2803 24.2803C10.1397 24.421 9.94891 24.5 9.75 24.5H2.75C2.28587 24.5 1.84075 24.3156 1.51256 23.9874C1.18437 23.6592 1 23.2141 1 22.75V2.75C1 2.28587 1.18437 1.84075 1.51256 1.51256C1.84075 1.18437 2.28587 1 2.75 1H9.75C9.94891 1 10.1397 1.07902 10.2803 1.21967C10.421 1.36032 10.5 1.55109 10.5 1.75C10.5 1.94891 10.421 2.13968 10.2803 2.28033C10.1397 2.42098 9.94891 2.5 9.75 2.5H2.75C2.6837 2.5 2.62011 2.52634 2.57322 2.57322C2.52634 2.62011 2.5 2.6837 2.5 2.75V22.75C2.5 22.8163 2.52634 22.8799 2.57322 22.9268C2.62011 22.9737 2.6837 23 2.75 23H9.75C9.94891 23 10.1397 23.079 10.2803 23.2197C10.421 23.3603 10.5 23.5511 10.5 23.75ZM24.28 12.22L19.28 7.22C19.1378 7.08752 18.9498 7.0154 18.7555 7.01882C18.5612 7.02225 18.3758 7.10097 18.2384 7.23838C18.101 7.37579 18.0223 7.56118 18.0188 7.75548C18.0154 7.94978 18.0875 8.13782 18.22 8.28L21.9387 12H9.75C9.55109 12 9.36032 12.079 9.21967 12.2197C9.07902 12.3603 9 12.5511 9 12.75C9 12.9489 9.07902 13.1397 9.21967 13.2803C9.36032 13.421 9.55109 13.5 9.75 13.5H21.9387L18.22 17.22C18.1463 17.2887 18.0872 17.3715 18.0462 17.4635C18.0052 17.5555 17.9832 17.6548 17.9814 17.7555C17.9796 17.8562 17.9982 17.9562 18.0359 18.0496C18.0736 18.143 18.1297 18.2278 18.201 18.299C18.2722 18.3703 18.357 18.4264 18.4504 18.4641C18.5438 18.5018 18.6438 18.5204 18.7445 18.5186C18.8452 18.5168 18.9445 18.4948 19.0365 18.4538C19.1285 18.4128 19.2113 18.3537 19.28 18.28L24.28 13.28C24.4205 13.1394 24.4993 12.9488 24.4993 12.75C24.4993 12.5512 24.4205 12.3606 24.28 12.22Z" fill="#0C7649" stroke="#0C7649"/>
</svg>
