<svg width="16" height="16" viewBox="0 0 16 16" fill="none" xmlns="http://www.w3.org/2000/svg">
<path d="M6.86187 15.0376C6.86187 15.1604 6.81311 15.2781 6.72632 15.3649C6.63953 15.4516 6.52182 15.5004 6.39909 15.5004H2.07982C1.79343 15.5004 1.51878 15.3866 1.31627 15.1841C1.11377 14.9816 1 14.707 1 14.4206V2.07982C1 1.79343 1.11377 1.51878 1.31627 1.31627C1.51878 1.11377 1.79343 1 2.07982 1H6.39909C6.52182 1 6.63953 1.04876 6.72632 1.13554C6.81311 1.22233 6.86187 1.34004 6.86187 1.46278C6.86187 1.58552 6.81311 1.70323 6.72632 1.79001C6.63953 1.8768 6.52182 1.92556 6.39909 1.92556H2.07982C2.03891 1.92556 1.99967 1.94181 1.97074 1.97074C1.94181 1.99967 1.92556 2.03891 1.92556 2.07982V14.4206C1.92556 14.4615 1.94181 14.5007 1.97074 14.5297C1.99967 14.5586 2.03891 14.5748 2.07982 14.5748H6.39909C6.52182 14.5748 6.63953 14.6236 6.72632 14.7104C6.81311 14.7972 6.86187 14.9149 6.86187 15.0376ZM15.3647 7.92317L12.2795 4.83798C12.1917 4.75623 12.0757 4.71173 11.9558 4.71385C11.8359 4.71596 11.7215 4.76453 11.6367 4.84932C11.552 4.93411 11.5034 5.0485 11.5013 5.16839C11.4992 5.28828 11.5437 5.40431 11.6254 5.49204L13.92 7.78742H6.39909C6.27635 7.78742 6.15864 7.83618 6.07185 7.92297C5.98507 8.00976 5.93631 8.12747 5.93631 8.2502C5.93631 8.37294 5.98507 8.49065 6.07185 8.57744C6.15864 8.66422 6.27635 8.71298 6.39909 8.71298H13.92L11.6254 11.0084C11.5799 11.0507 11.5435 11.1018 11.5182 11.1586C11.4929 11.2154 11.4793 11.2766 11.4782 11.3388C11.4771 11.4009 11.4885 11.4626 11.5118 11.5203C11.5351 11.5779 11.5697 11.6302 11.6137 11.6742C11.6576 11.7181 11.7099 11.7528 11.7676 11.776C11.8252 11.7993 11.8869 11.8107 11.9491 11.8096C12.0112 11.8085 12.0725 11.7949 12.1292 11.7697C12.186 11.7444 12.2371 11.7079 12.2795 11.6624L15.3647 8.57723C15.4513 8.49046 15.5 8.37284 15.5 8.2502C15.5 8.12757 15.4513 8.00994 15.3647 7.92317Z" fill="#0C7649" stroke="#0C7649"/>
</svg>
