<svg width="18" height="19" viewBox="0 0 18 19" fill="none" xmlns="http://www.w3.org/2000/svg">
<path d="M17.1024 7.95456L10.0811 1.32823L10.0733 1.32121C9.84766 1.1146 9.55284 1 9.24693 1C8.94103 1 8.64621 1.1146 8.42062 1.32121L8.41272 1.32823L1.39145 7.95456C1.26726 8.07018 1.16836 8.21028 1.101 8.36601C1.03363 8.52174 0.999243 8.68974 1.00001 8.85942V16.9734C1.00001 17.2993 1.12947 17.6118 1.3599 17.8422C1.59033 18.0727 1.90286 18.2021 2.22874 18.2021H6.4415C6.76738 18.2021 7.07991 18.0727 7.31034 17.8422C7.54077 17.6118 7.67022 17.2993 7.67022 16.9734V12.7606C7.67022 12.7141 7.68871 12.6694 7.72163 12.6365C7.75455 12.6036 7.7992 12.5851 7.84575 12.5851H10.6543C10.7008 12.5851 10.7455 12.6036 10.7784 12.6365C10.8113 12.6694 10.8298 12.7141 10.8298 12.7606V16.9734C10.8298 17.2993 10.9592 17.6118 11.1897 17.8422C11.4201 18.0727 11.7326 18.2021 12.0585 18.2021H16.2713C16.5972 18.2021 16.9097 18.0727 17.1401 17.8422C17.3705 17.6118 17.5 17.2993 17.5 16.9734V8.85942C17.5 8.68929 17.4646 8.52101 17.3962 8.36525C17.3278 8.20949 17.2277 8.06964 17.1024 7.95456ZM16.4468 16.9734C16.4468 17.0199 16.4283 17.0646 16.3954 17.0975C16.3625 17.1304 16.3178 17.1489 16.2713 17.1489H12.0585C12.012 17.1489 11.9673 17.1304 11.9344 17.0975C11.9015 17.0646 11.883 17.0199 11.883 16.9734V12.7606C11.883 12.4347 11.7535 12.1222 11.5231 11.8918C11.2927 11.6614 10.9801 11.5319 10.6543 11.5319H7.84575C7.51988 11.5319 7.20734 11.6614 6.97691 11.8918C6.74648 12.1222 6.61703 12.4347 6.61703 12.7606V16.9734C6.61703 17.0199 6.59854 17.0646 6.56562 17.0975C6.5327 17.1304 6.48805 17.1489 6.4415 17.1489H2.22874C2.18218 17.1489 2.13753 17.1304 2.10462 17.0975C2.0717 17.0646 2.0532 17.0199 2.0532 16.9734V8.85942C2.05315 8.835 2.0582 8.81082 2.06802 8.78846C2.07784 8.76609 2.09223 8.74602 2.11025 8.72953L2.11815 8.72251L9.13416 2.09794C9.16613 2.07004 9.20713 2.05466 9.24957 2.05466C9.29201 2.05466 9.33301 2.07004 9.36498 2.09794L16.3819 8.72339L16.3889 8.73041C16.4071 8.74682 16.4216 8.76686 16.4316 8.78923C16.4416 8.8116 16.4468 8.83581 16.4468 8.8603V16.9734Z" fill="#0C7649" stroke="#0C7649"/>
</svg>
