<svg width="17" height="18" viewBox="0 0 17 18" fill="none" xmlns="http://www.w3.org/2000/svg">
<path d="M16.1024 6.95456L9.08115 0.328232L9.07325 0.32121C8.84766 0.114601 8.55284 0 8.24693 0C7.94103 0 7.64621 0.114601 7.42062 0.32121L7.41272 0.328232L0.391448 6.95456C0.267259 7.07018 0.168365 7.21028 0.100995 7.36601C0.0336263 7.52174 -0.000756767 7.68974 1.26331e-05 7.85942V15.9734C1.26331e-05 16.2993 0.129467 16.6118 0.359897 16.8422C0.590327 17.0727 0.902858 17.2021 1.22874 17.2021H5.4415C5.76738 17.2021 6.07991 17.0727 6.31034 16.8422C6.54077 16.6118 6.67022 16.2993 6.67022 15.9734V11.7606C6.67022 11.7141 6.68871 11.6694 6.72163 11.6365C6.75455 11.6036 6.7992 11.5851 6.84575 11.5851H9.65426C9.70082 11.5851 9.74546 11.6036 9.77838 11.6365C9.8113 11.6694 9.82979 11.7141 9.82979 11.7606V15.9734C9.82979 16.2993 9.95925 16.6118 10.1897 16.8422C10.4201 17.0727 10.7326 17.2021 11.0585 17.2021H15.2713C15.5972 17.2021 15.9097 17.0727 16.1401 16.8422C16.3705 16.6118 16.5 16.2993 16.5 15.9734V7.85942C16.5 7.68929 16.4646 7.52101 16.3962 7.36525C16.3278 7.20949 16.2277 7.06964 16.1024 6.95456ZM15.4468 15.9734C15.4468 16.0199 15.4283 16.0646 15.3954 16.0975C15.3625 16.1304 15.3178 16.1489 15.2713 16.1489H11.0585C11.012 16.1489 10.9673 16.1304 10.9344 16.0975C10.9015 16.0646 10.883 16.0199 10.883 15.9734V11.7606C10.883 11.4347 10.7535 11.1222 10.5231 10.8918C10.2927 10.6614 9.98014 10.5319 9.65426 10.5319H6.84575C6.51988 10.5319 6.20734 10.6614 5.97691 10.8918C5.74648 11.1222 5.61703 11.4347 5.61703 11.7606V15.9734C5.61703 16.0199 5.59854 16.0646 5.56562 16.0975C5.5327 16.1304 5.48805 16.1489 5.4415 16.1489H1.22874C1.18218 16.1489 1.13753 16.1304 1.10462 16.0975C1.0717 16.0646 1.0532 16.0199 1.0532 15.9734V7.85942C1.05315 7.835 1.0582 7.81082 1.06802 7.78846C1.07784 7.76609 1.09223 7.74602 1.11025 7.72953L1.11815 7.72251L8.13416 1.09794C8.16613 1.07004 8.20713 1.05466 8.24957 1.05466C8.29201 1.05466 8.33301 1.07004 8.36498 1.09794L15.3819 7.72339L15.3889 7.73041C15.4071 7.74682 15.4216 7.76686 15.4316 7.78923C15.4416 7.8116 15.4468 7.83581 15.4468 7.8603V15.9734Z" fill="#9B9B9B"/>
</svg>
