<svg width="24" height="25" viewBox="0 0 24 25" fill="none" xmlns="http://www.w3.org/2000/svg">
<path d="M22.9338 9.90498L12.9338 0.467482L12.9225 0.457482C12.6012 0.163219 12.1813 0 11.7456 0C11.31 0 10.8901 0.163219 10.5688 0.457482L10.5575 0.467482L0.557518 9.90498C0.380643 10.0697 0.239792 10.2692 0.143842 10.491C0.047892 10.7128 -0.00107782 10.9521 1.79925e-05 11.1937V22.75C1.79925e-05 23.2141 0.184393 23.6592 0.512581 23.9874C0.84077 24.3156 1.28589 24.5 1.75002 24.5H7.75002C8.21415 24.5 8.65927 24.3156 8.98746 23.9874C9.31564 23.6592 9.50002 23.2141 9.50002 22.75V16.75C9.50002 16.6837 9.52636 16.6201 9.57324 16.5732C9.62013 16.5263 9.68371 16.5 9.75002 16.5H13.75C13.8163 16.5 13.8799 16.5263 13.9268 16.5732C13.9737 16.6201 14 16.6837 14 16.75V22.75C14 23.2141 14.1844 23.6592 14.5126 23.9874C14.8408 24.3156 15.2859 24.5 15.75 24.5H21.75C22.2141 24.5 22.6593 24.3156 22.9875 23.9874C23.3156 23.6592 23.5 23.2141 23.5 22.75V11.1937C23.5 10.9514 23.4497 10.7118 23.3522 10.4899C23.2547 10.2681 23.1122 10.0689 22.9338 9.90498ZM22 22.75C22 22.8163 21.9737 22.8799 21.9268 22.9268C21.8799 22.9736 21.8163 23 21.75 23H15.75C15.6837 23 15.6201 22.9736 15.5732 22.9268C15.5264 22.8799 15.5 22.8163 15.5 22.75V16.75C15.5 16.2859 15.3156 15.8407 14.9875 15.5125C14.6593 15.1844 14.2141 15 13.75 15H9.75002C9.28589 15 8.84077 15.1844 8.51258 15.5125C8.18439 15.8407 8.00002 16.2859 8.00002 16.75V22.75C8.00002 22.8163 7.97368 22.8799 7.9268 22.9268C7.87991 22.9736 7.81632 23 7.75002 23H1.75002C1.68371 23 1.62013 22.9736 1.57324 22.9268C1.52636 22.8799 1.50002 22.8163 1.50002 22.75V11.1937C1.49994 11.1589 1.50713 11.1245 1.52112 11.0927C1.53511 11.0608 1.5556 11.0322 1.58127 11.0087L1.59252 10.9987L11.585 1.56373C11.6306 1.52399 11.689 1.5021 11.7494 1.5021C11.8098 1.5021 11.8682 1.52399 11.9138 1.56373L21.9075 11L21.9175 11.01C21.9434 11.0334 21.9641 11.0619 21.9783 11.0938C21.9926 11.1256 21.9999 11.1601 22 11.195V22.75Z" fill="#9B9B9B"/>
</svg>
