<svg width="25" height="26" viewBox="0 0 25 26" fill="none" xmlns="http://www.w3.org/2000/svg">
<path d="M23.9338 10.905L13.9338 1.46748L13.9225 1.45748C13.6012 1.16322 13.1813 1 12.7456 1C12.31 1 11.8901 1.16322 11.5688 1.45748L11.5575 1.46748L1.55752 10.905C1.38064 11.0697 1.23979 11.2692 1.14384 11.491C1.04789 11.7128 0.998922 11.9521 1.00002 12.1937V23.75C1.00002 24.2141 1.18439 24.6592 1.51258 24.9874C1.84077 25.3156 2.28589 25.5 2.75002 25.5H8.75002C9.21415 25.5 9.65927 25.3156 9.98746 24.9874C10.3156 24.6592 10.5 24.2141 10.5 23.75V17.75C10.5 17.6837 10.5264 17.6201 10.5732 17.5732C10.6201 17.5263 10.6837 17.5 10.75 17.5H14.75C14.8163 17.5 14.8799 17.5263 14.9268 17.5732C14.9737 17.6201 15 17.6837 15 17.75V23.75C15 24.2141 15.1844 24.6592 15.5126 24.9874C15.8408 25.3156 16.2859 25.5 16.75 25.5H22.75C23.2141 25.5 23.6593 25.3156 23.9875 24.9874C24.3156 24.6592 24.5 24.2141 24.5 23.75V12.1937C24.5 11.9514 24.4497 11.7118 24.3522 11.4899C24.2547 11.2681 24.1122 11.0689 23.9338 10.905ZM23 23.75C23 23.8163 22.9737 23.8799 22.9268 23.9268C22.8799 23.9736 22.8163 24 22.75 24H16.75C16.6837 24 16.6201 23.9736 16.5732 23.9268C16.5264 23.8799 16.5 23.8163 16.5 23.75V17.75C16.5 17.2859 16.3156 16.8407 15.9875 16.5125C15.6593 16.1844 15.2141 16 14.75 16H10.75C10.2859 16 9.84077 16.1844 9.51258 16.5125C9.18439 16.8407 9.00002 17.2859 9.00002 17.75V23.75C9.00002 23.8163 8.97368 23.8799 8.9268 23.9268C8.87991 23.9736 8.81632 24 8.75002 24H2.75002C2.68371 24 2.62013 23.9736 2.57324 23.9268C2.52636 23.8799 2.50002 23.8163 2.50002 23.75V12.1937C2.49994 12.1589 2.50713 12.1245 2.52112 12.0927C2.53511 12.0608 2.5556 12.0322 2.58127 12.0087L2.59252 11.9987L12.585 2.56373C12.6306 2.52399 12.689 2.5021 12.7494 2.5021C12.8098 2.5021 12.8682 2.52399 12.9138 2.56373L22.9075 12L22.9175 12.01C22.9434 12.0334 22.9641 12.0619 22.9783 12.0938C22.9926 12.1256 22.9999 12.1601 23 12.195V23.75Z" fill="#0C7649" stroke="#0C7649"/>
</svg>
