<svg width="56" height="56" viewBox="0 0 56 56" fill="none" xmlns="http://www.w3.org/2000/svg">
<circle cx="27.9999" cy="28" r="26.6667" stroke="#0EA237" stroke-width="2.5"/>
<path d="M47.8651 45.7904L47.0106 46.7028L47.9432 47.5762L48.796 46.6246L47.8651 45.7904ZM8.13475 45.7904L7.20386 46.6247L8.05665 47.5763L8.98926 46.7027L8.13475 45.7904ZM53.4166 28C53.4166 34.5163 50.966 40.4572 46.9342 44.9562L48.796 46.6246C53.2228 41.6849 55.9166 35.1556 55.9166 28H53.4166ZM27.9999 2.58334C42.0372 2.58334 53.4166 13.9628 53.4166 28H55.9166C55.9166 12.5821 43.4179 0.0833359 27.9999 0.0833359V2.58334ZM2.58325 28C2.58325 13.9628 13.9627 2.58334 27.9999 2.58334V0.0833359C12.582 0.0833359 0.083252 12.5821 0.083252 28H2.58325ZM9.06564 44.9562C5.03382 40.4572 2.58325 34.5163 2.58325 28H0.083252C0.083252 35.1556 2.77704 41.6849 7.20386 46.6247L9.06564 44.9562ZM8.98926 46.7027C10.5763 45.2162 13.6445 43.8691 17.2896 42.8968C20.886 41.9375 24.8322 41.3982 27.9992 41.3982V38.8982C24.5891 38.8982 20.4256 39.4729 16.6453 40.4812C12.9137 41.4766 9.33814 42.9506 7.28023 44.8781L8.98926 46.7027ZM27.9992 41.3982C31.1662 41.3982 35.1127 41.9375 38.7095 42.8968C42.3549 43.8691 45.4235 45.2162 47.0106 46.7028L48.7196 44.8781C46.6615 42.9506 43.0856 41.4766 39.3537 40.4812C35.573 39.4729 31.4093 38.8982 27.9992 38.8982V41.3982Z" fill="#0EA237"/>
<circle cx="27.9996" cy="21.1852" r="11.8519" stroke="#0EA237" stroke-width="2.5"/>
<circle cx="27.9996" cy="21.1852" r="11.8519" stroke="#0EA237" stroke-width="2.5"/>
</svg>
