<svg width="32" height="32" viewBox="0 0 32 32" fill="none" xmlns="http://www.w3.org/2000/svg">
<circle cx="16" cy="16" r="13.3333" stroke="#0EA237" stroke-width="1.5"/>
<path d="M25.9326 24.8952L25.4199 25.4426L25.9794 25.9667L26.4911 25.3957L25.9326 24.8952ZM6.06738 24.8952L5.50884 25.3958L6.02052 25.9667L6.58009 25.4426L6.06738 24.8952ZM28.5833 16C28.5833 19.2262 27.3702 22.1672 25.374 24.3947L26.4911 25.3957C28.7242 22.9038 30.0833 19.6097 30.0833 16H28.5833ZM16 3.41667C22.9495 3.41667 28.5833 9.05042 28.5833 16H30.0833C30.0833 8.22199 23.778 1.91667 16 1.91667V3.41667ZM3.41663 16C3.41663 9.05042 9.05038 3.41667 16 3.41667V1.91667C8.22195 1.91667 1.91663 8.22199 1.91663 16H3.41663ZM6.62591 24.3947C4.62975 22.1672 3.41663 19.2262 3.41663 16H1.91663C1.91663 19.6097 3.27568 22.9039 5.50884 25.3958L6.62591 24.3947ZM6.58009 25.4426C7.35007 24.7214 8.85877 24.0542 10.677 23.5692C12.466 23.092 14.4283 22.8241 15.9996 22.8241V21.3241C14.2824 21.3241 12.1898 21.6132 10.2904 22.1198C8.42031 22.6187 6.60717 23.362 5.55467 24.3478L6.58009 25.4426ZM15.9996 22.8241C17.5709 22.8241 19.5333 23.092 21.3225 23.5692C23.1409 24.0542 24.6498 24.7214 25.4199 25.4426L26.4452 24.3478C25.3927 23.362 23.5793 22.6187 21.7091 22.1198C19.8095 21.6132 17.7168 21.3241 15.9996 21.3241V22.8241Z" fill="#0EA237"/>
<circle cx="15.9998" cy="12.5926" r="5.92593" stroke="#0EA237" stroke-width="1.5"/>
<circle cx="15.9998" cy="12.5926" r="5.92593" stroke="#0EA237" stroke-width="1.5"/>
</svg>
