<svg width="32" height="32" viewBox="0 0 32 32" fill="none" xmlns="http://www.w3.org/2000/svg">
<path d="M22.6666 28H9.33329C3.99996 28 2.66663 26.6667 2.66663 21.3333V10.6667C2.66663 5.33333 3.99996 4 9.33329 4H22.6666C28 4 29.3333 5.33333 29.3333 10.6667V21.3333C29.3333 26.6667 28 28 22.6666 28Z" stroke="#E3E3E3" stroke-width="1.5" stroke-linecap="round" stroke-linejoin="round"/>
<path d="M18.6666 10.6667H25.3333" stroke="#E3E3E3" stroke-width="1.5" stroke-linecap="round" stroke-linejoin="round"/>
<path d="M20 16H25.3333" stroke="#E3E3E3" stroke-width="1.5" stroke-linecap="round" stroke-linejoin="round"/>
<path d="M22.6666 21.3333H25.3333" stroke="#E3E3E3" stroke-width="1.5" stroke-linecap="round" stroke-linejoin="round"/>
<path d="M11.3334 15.0533C12.6662 15.0533 13.7467 13.9728 13.7467 12.64C13.7467 11.3071 12.6662 10.2267 11.3334 10.2267C10.0005 10.2267 8.92004 11.3071 8.92004 12.64C8.92004 13.9728 10.0005 15.0533 11.3334 15.0533Z" stroke="#E3E3E3" stroke-width="1.5" stroke-linecap="round" stroke-linejoin="round"/>
<path d="M16 21.7733C15.8133 19.84 14.28 18.32 12.3466 18.1467C11.68 18.08 11 18.08 10.32 18.1467C8.38663 18.3333 6.85329 19.84 6.66663 21.7733" stroke="#E3E3E3" stroke-width="1.5" stroke-linecap="round" stroke-linejoin="round"/>
</svg>
