<svg width="18" height="18" viewBox="0 0 18 18" fill="none" xmlns="http://www.w3.org/2000/svg">
<path d="M16.2713 1H2.22872C1.90285 1 1.59032 1.12945 1.35988 1.35988C1.12945 1.59032 1 1.90285 1 2.22872V16.2713C1 16.5972 1.12945 16.9097 1.35988 17.1401C1.59032 17.3705 1.90285 17.5 2.22872 17.5H16.2713C16.5972 17.5 16.9097 17.3705 17.1401 17.1401C17.3705 16.9097 17.5 16.5972 17.5 16.2713V2.22872C17.5 1.90285 17.3705 1.59032 17.1401 1.35988C16.9097 1.12945 16.5972 1 16.2713 1ZM6.26596 8.54787C6.26596 7.95768 6.44097 7.38075 6.76886 6.89003C7.09675 6.3993 7.56279 6.01683 8.10806 5.79098C8.65332 5.56512 9.25331 5.50603 9.83216 5.62117C10.411 5.73631 10.9427 6.02051 11.36 6.43784C11.7774 6.85516 12.0616 7.38687 12.1767 7.96571C12.2918 8.54456 12.2328 9.14455 12.0069 9.68982C11.781 10.2351 11.3986 10.7011 10.9078 11.029C10.4171 11.3569 9.84019 11.5319 9.25 11.5319C8.45858 11.5319 7.69958 11.2175 7.13996 10.6579C6.58035 10.0983 6.26596 9.33929 6.26596 8.54787ZM3.78832 16.4468C4.14747 15.4366 4.77822 14.545 5.61122 13.87C6.64155 13.0382 7.92579 12.5844 9.25 12.5844C10.5742 12.5844 11.8585 13.0382 12.8888 13.87C13.7218 14.545 14.3525 15.4366 14.7117 16.4468H3.78832ZM16.4468 16.2713C16.4468 16.3178 16.4283 16.3625 16.3954 16.3954C16.3625 16.4283 16.3178 16.4468 16.2713 16.4468H15.8175C15.5103 15.3991 14.9565 14.4403 14.2024 13.6506C13.4484 12.861 12.5161 12.2636 11.4836 11.9084C12.2059 11.4287 12.7546 10.7292 13.0484 9.91339C13.3422 9.0976 13.3656 8.20889 13.115 7.3788C12.8645 6.5487 12.3533 5.82132 11.6572 5.30431C10.9611 4.78731 10.1171 4.50815 9.25 4.50815C8.38291 4.50815 7.53886 4.78731 6.84277 5.30431C6.14668 5.82132 5.63554 6.5487 5.38499 7.3788C5.13443 8.20889 5.15779 9.0976 5.45161 9.91339C5.74542 10.7292 6.29407 11.4287 7.01636 11.9084C5.98391 12.2636 5.05162 12.861 4.29757 13.6506C3.54353 14.4403 2.9897 15.3991 2.68247 16.4468H2.22872C2.18217 16.4468 2.13752 16.4283 2.1046 16.3954C2.07168 16.3625 2.05319 16.3178 2.05319 16.2713V2.22872C2.05319 2.18217 2.07168 2.13752 2.1046 2.1046C2.13752 2.07168 2.18217 2.05319 2.22872 2.05319H16.2713C16.3178 2.05319 16.3625 2.07168 16.3954 2.1046C16.4283 2.13752 16.4468 2.18217 16.4468 2.22872V16.2713Z" fill="#0C7649" stroke="#0C7649"/>
</svg>
