<svg width="25" height="25" viewBox="0 0 25 25" fill="none" xmlns="http://www.w3.org/2000/svg">
<path d="M22.75 1H2.75C2.28587 1 1.84075 1.18437 1.51256 1.51256C1.18437 1.84075 1 2.28587 1 2.75V22.75C1 23.2141 1.18437 23.6592 1.51256 23.9874C1.84075 24.3156 2.28587 24.5 2.75 24.5H22.75C23.2141 24.5 23.6592 24.3156 23.9874 23.9874C24.3156 23.6592 24.5 23.2141 24.5 22.75V2.75C24.5 2.28587 24.3156 1.84075 23.9874 1.51256C23.6592 1.18437 23.2141 1 22.75 1ZM8.5 11.75C8.5 10.9094 8.74926 10.0877 9.21625 9.38883C9.68325 8.68992 10.347 8.14518 11.1236 7.82351C11.9002 7.50184 12.7547 7.41767 13.5791 7.58166C14.4036 7.74565 15.1608 8.15042 15.7552 8.7448C16.3496 9.33917 16.7543 10.0964 16.9183 10.9209C17.0823 11.7453 16.9982 12.5998 16.6765 13.3764C16.3548 14.153 15.8101 14.8168 15.1112 15.2837C14.4123 15.7507 13.5906 16 12.75 16C11.6228 16 10.5418 15.5522 9.7448 14.7552C8.94777 13.9582 8.5 12.8772 8.5 11.75ZM4.97125 23C5.48276 21.5612 6.3811 20.2913 7.5675 19.33C9.03493 18.1452 10.864 17.4991 12.75 17.4991C14.636 17.4991 16.4651 18.1452 17.9325 19.33C19.1189 20.2913 20.0172 21.5612 20.5287 23H4.97125ZM23 22.75C23 22.8163 22.9737 22.8799 22.9268 22.9268C22.8799 22.9737 22.8163 23 22.75 23H22.1038C21.6662 21.5078 20.8774 20.1422 19.8035 19.0176C18.7295 17.893 17.4017 17.0421 15.9312 16.5362C16.96 15.853 17.7414 14.8567 18.1598 13.6948C18.5783 12.533 18.6116 11.2672 18.2547 10.085C17.8979 8.90269 17.1699 7.86673 16.1785 7.13039C15.1871 6.39405 13.9849 5.99645 12.75 5.99645C11.5151 5.99645 10.3129 6.39405 9.32153 7.13039C8.33012 7.86673 7.60213 8.90269 7.24528 10.085C6.88844 11.2672 6.92171 12.533 7.34017 13.6948C7.75862 14.8567 8.54003 15.853 9.56875 16.5362C8.0983 17.0421 6.77048 17.893 5.69654 19.0176C4.6226 20.1422 3.83381 21.5078 3.39625 23H2.75C2.6837 23 2.62011 22.9737 2.57322 22.9268C2.52634 22.8799 2.5 22.8163 2.5 22.75V2.75C2.5 2.6837 2.52634 2.62011 2.57322 2.57322C2.62011 2.52634 2.6837 2.5 2.75 2.5H22.75C22.8163 2.5 22.8799 2.52634 22.9268 2.57322C22.9737 2.62011 23 2.6837 23 2.75V22.75Z" fill="#0C7649" stroke="#0C7649"/>
</svg>
