<svg width="32" height="32" viewBox="0 0 32 32" fill="none" xmlns="http://www.w3.org/2000/svg">
<path d="M24.6667 26H19.3334" stroke="#0EA137" stroke-width="2.5" stroke-linecap="round" stroke-linejoin="round"/>
<path d="M22 28.6667V23.3333" stroke="#0EA137" stroke-width="2.5" stroke-linecap="round" stroke-linejoin="round"/>
<path d="M16.2133 14.4933C16.08 14.48 15.92 14.48 15.7733 14.4933C12.6 14.3867 10.08 11.7867 10.08 8.58666C10.0667 5.31999 12.72 2.66666 15.9867 2.66666C19.2533 2.66666 21.9067 5.31999 21.9067 8.58666C21.9067 11.7867 19.3733 14.3867 16.2133 14.4933Z" stroke="#0EA137" stroke-width="2.5" stroke-linecap="round" stroke-linejoin="round"/>
<path d="M15.9867 29.08C13.5601 29.08 11.1467 28.4667 9.30672 27.24C6.08005 25.08 6.08005 21.56 9.30672 19.4133C12.9734 16.96 18.9867 16.96 22.6534 19.4133" stroke="#0EA137" stroke-width="2.5" stroke-linecap="round" stroke-linejoin="round"/>
</svg>
