<svg width="17" height="17" viewBox="0 0 17 17" fill="none" xmlns="http://www.w3.org/2000/svg">
<path d="M15.2713 0H1.22872C0.902846 0 0.590315 0.129454 0.359885 0.359885C0.129454 0.590315 0 0.902846 0 1.22872V15.2713C0 15.5972 0.129454 15.9097 0.359885 16.1401C0.590315 16.3705 0.902846 16.5 1.22872 16.5H15.2713C15.5972 16.5 15.9097 16.3705 16.1401 16.1401C16.3705 15.9097 16.5 15.5972 16.5 15.2713V1.22872C16.5 0.902846 16.3705 0.590315 16.1401 0.359885C15.9097 0.129454 15.5972 0 15.2713 0ZM5.26596 7.54787C5.26596 6.95768 5.44097 6.38075 5.76886 5.89003C6.09675 5.3993 6.56279 5.01683 7.10806 4.79098C7.65332 4.56512 8.25331 4.50603 8.83216 4.62117C9.41101 4.73631 9.94271 5.02051 10.36 5.43784C10.7774 5.85516 11.0616 6.38687 11.1767 6.96571C11.2918 7.54456 11.2328 8.14455 11.0069 8.68982C10.781 9.23508 10.3986 9.70112 9.90784 10.029C9.41712 10.3569 8.84019 10.5319 8.25 10.5319C7.45858 10.5319 6.69958 10.2175 6.13996 9.65791C5.58035 9.09829 5.26596 8.33929 5.26596 7.54787ZM2.78832 15.4468C3.14747 14.4366 3.77822 13.545 4.61122 12.87C5.64155 12.0382 6.92579 11.5844 8.25 11.5844C9.57421 11.5844 10.8585 12.0382 11.8888 12.87C12.7218 13.545 13.3525 14.4366 13.7117 15.4468H2.78832ZM15.4468 15.2713C15.4468 15.3178 15.4283 15.3625 15.3954 15.3954C15.3625 15.4283 15.3178 15.4468 15.2713 15.4468H14.8175C14.5103 14.3991 13.9565 13.4403 13.2024 12.6506C12.4484 11.861 11.5161 11.2636 10.4836 10.9084C11.2059 10.4287 11.7546 9.72918 12.0484 8.91339C12.3422 8.0976 12.3656 7.20889 12.115 6.3788C11.8645 5.5487 11.3533 4.82132 10.6572 4.30431C9.96113 3.78731 9.11709 3.50815 8.25 3.50815C7.38291 3.50815 6.53886 3.78731 5.84277 4.30431C5.14668 4.82132 4.63554 5.5487 4.38499 6.3788C4.13443 7.20889 4.15779 8.0976 4.45161 8.91339C4.74542 9.72918 5.29407 10.4287 6.01636 10.9084C4.98391 11.2636 4.05162 11.861 3.29757 12.6506C2.54353 13.4403 1.9897 14.3991 1.68247 15.4468H1.22872C1.18217 15.4468 1.13752 15.4283 1.1046 15.3954C1.07168 15.3625 1.05319 15.3178 1.05319 15.2713V1.22872C1.05319 1.18217 1.07168 1.13752 1.1046 1.1046C1.13752 1.07168 1.18217 1.05319 1.22872 1.05319H15.2713C15.3178 1.05319 15.3625 1.07168 15.3954 1.1046C15.4283 1.13752 15.4468 1.18217 15.4468 1.22872V15.2713Z" fill="#9B9B9B"/>
</svg>
