<svg width="24" height="24" viewBox="0 0 24 24" fill="none" xmlns="http://www.w3.org/2000/svg">
<path d="M21.75 0H1.75C1.28587 0 0.840752 0.184375 0.512563 0.512563C0.184375 0.840752 0 1.28587 0 1.75V21.75C0 22.2141 0.184375 22.6592 0.512563 22.9874C0.840752 23.3156 1.28587 23.5 1.75 23.5H21.75C22.2141 23.5 22.6592 23.3156 22.9874 22.9874C23.3156 22.6592 23.5 22.2141 23.5 21.75V1.75C23.5 1.28587 23.3156 0.840752 22.9874 0.512563C22.6592 0.184375 22.2141 0 21.75 0ZM7.5 10.75C7.5 9.90943 7.74926 9.08774 8.21625 8.38883C8.68325 7.68992 9.34701 7.14518 10.1236 6.82351C10.9002 6.50184 11.7547 6.41767 12.5791 6.58166C13.4036 6.74565 14.1608 7.15042 14.7552 7.7448C15.3496 8.33917 15.7543 9.09645 15.9183 9.92087C16.0823 10.7453 15.9982 11.5998 15.6765 12.3764C15.3548 13.153 14.8101 13.8168 14.1112 14.2837C13.4123 14.7507 12.5906 15 11.75 15C10.6228 15 9.54183 14.5522 8.7448 13.7552C7.94777 12.9582 7.5 11.8772 7.5 10.75ZM3.97125 22C4.48276 20.5612 5.3811 19.2913 6.5675 18.33C8.03493 17.1452 9.864 16.4991 11.75 16.4991C13.636 16.4991 15.4651 17.1452 16.9325 18.33C18.1189 19.2913 19.0172 20.5612 19.5287 22H3.97125ZM22 21.75C22 21.8163 21.9737 21.8799 21.9268 21.9268C21.8799 21.9737 21.8163 22 21.75 22H21.1038C20.6662 20.5078 19.8774 19.1422 18.8035 18.0176C17.7295 16.893 16.4017 16.0421 14.9312 15.5362C15.96 14.853 16.7414 13.8567 17.1598 12.6948C17.5783 11.533 17.6116 10.2672 17.2547 9.08495C16.8979 7.90269 16.1699 6.86673 15.1785 6.13039C14.1871 5.39405 12.9849 4.99645 11.75 4.99645C10.5151 4.99645 9.31293 5.39405 8.32153 6.13039C7.33012 6.86673 6.60213 7.90269 6.24528 9.08495C5.88844 10.2672 5.92171 11.533 6.34017 12.6948C6.75862 13.8567 7.54003 14.853 8.56875 15.5362C7.0983 16.0421 5.77048 16.893 4.69654 18.0176C3.6226 19.1422 2.83381 20.5078 2.39625 22H1.75C1.6837 22 1.62011 21.9737 1.57322 21.9268C1.52634 21.8799 1.5 21.8163 1.5 21.75V1.75C1.5 1.6837 1.52634 1.62011 1.57322 1.57322C1.62011 1.52634 1.6837 1.5 1.75 1.5H21.75C21.8163 1.5 21.8799 1.52634 21.9268 1.57322C21.9737 1.62011 22 1.6837 22 1.75V21.75Z" fill="#9B9B9B"/>
</svg>
