<svg width="26" height="24" viewBox="0 0 26 24" fill="none" xmlns="http://www.w3.org/2000/svg">
<path d="M13.5 10.75V22.75C13.5 22.9489 13.421 23.1397 13.2803 23.2803C13.1397 23.421 12.9489 23.5 12.75 23.5C12.5511 23.5 12.3603 23.421 12.2197 23.2803C12.079 23.1397 12 22.9489 12 22.75V10.75C12 10.5511 12.079 10.3603 12.2197 10.2197C12.3603 10.079 12.5511 10 12.75 10C12.9489 10 13.1397 10.079 13.2803 10.2197C13.421 10.3603 13.5 10.5511 13.5 10.75ZM21.75 20C21.5511 20 21.3603 20.079 21.2197 20.2197C21.079 20.3603 21 20.5511 21 20.75V22.75C21 22.9489 21.079 23.1397 21.2197 23.2803C21.3603 23.421 21.5511 23.5 21.75 23.5C21.9489 23.5 22.1397 23.421 22.2803 23.2803C22.421 23.1397 22.5 22.9489 22.5 22.75V20.75C22.5 20.5511 22.421 20.3603 22.2803 20.2197C22.1397 20.079 21.9489 20 21.75 20ZM24.75 16H22.5V0.75C22.5 0.551088 22.421 0.360322 22.2803 0.21967C22.1397 0.0790175 21.9489 0 21.75 0C21.5511 0 21.3603 0.0790175 21.2197 0.21967C21.079 0.360322 21 0.551088 21 0.75V16H18.75C18.5511 16 18.3603 16.079 18.2197 16.2197C18.079 16.3603 18 16.5511 18 16.75C18 16.9489 18.079 17.1397 18.2197 17.2803C18.3603 17.421 18.5511 17.5 18.75 17.5H24.75C24.9489 17.5 25.1397 17.421 25.2803 17.2803C25.421 17.1397 25.5 16.9489 25.5 16.75C25.5 16.5511 25.421 16.3603 25.2803 16.2197C25.1397 16.079 24.9489 16 24.75 16ZM3.75 16C3.55109 16 3.36032 16.079 3.21967 16.2197C3.07902 16.3603 3 16.5511 3 16.75V22.75C3 22.9489 3.07902 23.1397 3.21967 23.2803C3.36032 23.421 3.55109 23.5 3.75 23.5C3.94891 23.5 4.13968 23.421 4.28033 23.2803C4.42098 23.1397 4.5 22.9489 4.5 22.75V16.75C4.5 16.5511 4.42098 16.3603 4.28033 16.2197C4.13968 16.079 3.94891 16 3.75 16ZM6.75 12H4.5V0.75C4.5 0.551088 4.42098 0.360322 4.28033 0.21967C4.13968 0.0790175 3.94891 0 3.75 0C3.55109 0 3.36032 0.0790175 3.21967 0.21967C3.07902 0.360322 3 0.551088 3 0.75V12H0.75C0.551088 12 0.360322 12.079 0.21967 12.2197C0.0790175 12.3603 0 12.5511 0 12.75C0 12.9489 0.0790175 13.1397 0.21967 13.2803C0.360322 13.421 0.551088 13.5 0.75 13.5H6.75C6.94891 13.5 7.13968 13.421 7.28033 13.2803C7.42098 13.1397 7.5 12.9489 7.5 12.75C7.5 12.5511 7.42098 12.3603 7.28033 12.2197C7.13968 12.079 6.94891 12 6.75 12ZM15.75 6H13.5V0.75C13.5 0.551088 13.421 0.360322 13.2803 0.21967C13.1397 0.0790175 12.9489 0 12.75 0C12.5511 0 12.3603 0.0790175 12.2197 0.21967C12.079 0.360322 12 0.551088 12 0.75V6H9.75C9.55109 6 9.36032 6.07902 9.21967 6.21967C9.07902 6.36032 9 6.55109 9 6.75C9 6.94891 9.07902 7.13968 9.21967 7.28033C9.36032 7.42098 9.55109 7.5 9.75 7.5H15.75C15.9489 7.5 16.1397 7.42098 16.2803 7.28033C16.421 7.13968 16.5 6.94891 16.5 6.75C16.5 6.55109 16.421 6.36032 16.2803 6.21967C16.1397 6.07902 15.9489 6 15.75 6Z" fill="#9B9B9B"/>
</svg>
