<svg width="16" height="15" viewBox="0 0 16 15" fill="none" xmlns="http://www.w3.org/2000/svg">
<path d="M8.20588 6.53432V13.8284C8.20588 13.9493 8.15785 14.0653 8.07236 14.1508C7.98686 14.2363 7.87091 14.2843 7.75 14.2843C7.62909 14.2843 7.51314 14.2363 7.42764 14.1508C7.34215 14.0653 7.29412 13.9493 7.29412 13.8284V6.53432C7.29412 6.41341 7.34215 6.29745 7.42764 6.21196C7.51314 6.12646 7.62909 6.07843 7.75 6.07843C7.87091 6.07843 7.98686 6.12646 8.07236 6.21196C8.15785 6.29745 8.20588 6.41341 8.20588 6.53432ZM13.2206 12.1569C13.0997 12.1569 12.9837 12.2049 12.8982 12.2904C12.8127 12.3759 12.7647 12.4918 12.7647 12.6127V13.8284C12.7647 13.9493 12.8127 14.0653 12.8982 14.1508C12.9837 14.2363 13.0997 14.2843 13.2206 14.2843C13.3415 14.2843 13.4575 14.2363 13.5429 14.1508C13.6284 14.0653 13.6765 13.9493 13.6765 13.8284V12.6127C13.6765 12.4918 13.6284 12.3759 13.5429 12.2904C13.4575 12.2049 13.3415 12.1569 13.2206 12.1569ZM15.0441 9.72549H13.6765V0.455882C13.6765 0.334975 13.6284 0.219019 13.5429 0.133525C13.4575 0.0480303 13.3415 0 13.2206 0C13.0997 0 12.9837 0.0480303 12.8982 0.133525C12.8127 0.219019 12.7647 0.334975 12.7647 0.455882V9.72549H11.3971C11.2762 9.72549 11.1602 9.77352 11.0747 9.85902C10.9892 9.94451 10.9412 10.0605 10.9412 10.1814C10.9412 10.3023 10.9892 10.4182 11.0747 10.5037C11.1602 10.5892 11.2762 10.6373 11.3971 10.6373H15.0441C15.165 10.6373 15.281 10.5892 15.3665 10.5037C15.452 10.4182 15.5 10.3023 15.5 10.1814C15.5 10.0605 15.452 9.94451 15.3665 9.85902C15.281 9.77352 15.165 9.72549 15.0441 9.72549ZM2.27941 9.72549C2.1585 9.72549 2.04255 9.77352 1.95705 9.85902C1.87156 9.94451 1.82353 10.0605 1.82353 10.1814V13.8284C1.82353 13.9493 1.87156 14.0653 1.95705 14.1508C2.04255 14.2363 2.1585 14.2843 2.27941 14.2843C2.40032 14.2843 2.51627 14.2363 2.60177 14.1508C2.68726 14.0653 2.73529 13.9493 2.73529 13.8284V10.1814C2.73529 10.0605 2.68726 9.94451 2.60177 9.85902C2.51627 9.77352 2.40032 9.72549 2.27941 9.72549ZM4.10294 7.29412H2.73529V0.455882C2.73529 0.334975 2.68726 0.219019 2.60177 0.133525C2.51627 0.0480303 2.40032 0 2.27941 0C2.1585 0 2.04255 0.0480303 1.95705 0.133525C1.87156 0.219019 1.82353 0.334975 1.82353 0.455882V7.29412H0.455882C0.334975 7.29412 0.219019 7.34215 0.133525 7.42764C0.0480303 7.51314 0 7.62909 0 7.75C0 7.87091 0.0480303 7.98687 0.133525 8.07236C0.219019 8.15785 0.334975 8.20588 0.455882 8.20588H4.10294C4.22385 8.20588 4.3398 8.15785 4.4253 8.07236C4.51079 7.98687 4.55882 7.87091 4.55882 7.75C4.55882 7.62909 4.51079 7.51314 4.4253 7.42764C4.3398 7.34215 4.22385 7.29412 4.10294 7.29412ZM9.57353 3.64706H8.20588V0.455882C8.20588 0.334975 8.15785 0.219019 8.07236 0.133525C7.98686 0.0480303 7.87091 0 7.75 0C7.62909 0 7.51314 0.0480303 7.42764 0.133525C7.34215 0.219019 7.29412 0.334975 7.29412 0.455882V3.64706H5.92647C5.80556 3.64706 5.68961 3.69509 5.60411 3.78058C5.51862 3.86608 5.47059 3.98203 5.47059 4.10294C5.47059 4.22385 5.51862 4.3398 5.60411 4.4253C5.68961 4.51079 5.80556 4.55882 5.92647 4.55882H9.57353C9.69444 4.55882 9.81039 4.51079 9.89589 4.4253C9.98138 4.3398 10.0294 4.22385 10.0294 4.10294C10.0294 3.98203 9.98138 3.86608 9.89589 3.78058C9.81039 3.69509 9.69444 3.64706 9.57353 3.64706Z" fill="#9B9B9B"/>
</svg>
