<svg width="27" height="25" viewBox="0 0 27 25" fill="none" xmlns="http://www.w3.org/2000/svg">
<path d="M14.5 11.75V23.75C14.5 23.9489 14.421 24.1397 14.2803 24.2803C14.1397 24.421 13.9489 24.5 13.75 24.5C13.5511 24.5 13.3603 24.421 13.2197 24.2803C13.079 24.1397 13 23.9489 13 23.75V11.75C13 11.5511 13.079 11.3603 13.2197 11.2197C13.3603 11.079 13.5511 11 13.75 11C13.9489 11 14.1397 11.079 14.2803 11.2197C14.421 11.3603 14.5 11.5511 14.5 11.75ZM22.75 21C22.5511 21 22.3603 21.079 22.2197 21.2197C22.079 21.3603 22 21.5511 22 21.75V23.75C22 23.9489 22.079 24.1397 22.2197 24.2803C22.3603 24.421 22.5511 24.5 22.75 24.5C22.9489 24.5 23.1397 24.421 23.2803 24.2803C23.421 24.1397 23.5 23.9489 23.5 23.75V21.75C23.5 21.5511 23.421 21.3603 23.2803 21.2197C23.1397 21.079 22.9489 21 22.75 21ZM25.75 17H23.5V1.75C23.5 1.55109 23.421 1.36032 23.2803 1.21967C23.1397 1.07902 22.9489 1 22.75 1C22.5511 1 22.3603 1.07902 22.2197 1.21967C22.079 1.36032 22 1.55109 22 1.75V17H19.75C19.5511 17 19.3603 17.079 19.2197 17.2197C19.079 17.3603 19 17.5511 19 17.75C19 17.9489 19.079 18.1397 19.2197 18.2803C19.3603 18.421 19.5511 18.5 19.75 18.5H25.75C25.9489 18.5 26.1397 18.421 26.2803 18.2803C26.421 18.1397 26.5 17.9489 26.5 17.75C26.5 17.5511 26.421 17.3603 26.2803 17.2197C26.1397 17.079 25.9489 17 25.75 17ZM4.75 17C4.55109 17 4.36032 17.079 4.21967 17.2197C4.07902 17.3603 4 17.5511 4 17.75V23.75C4 23.9489 4.07902 24.1397 4.21967 24.2803C4.36032 24.421 4.55109 24.5 4.75 24.5C4.94891 24.5 5.13968 24.421 5.28033 24.2803C5.42098 24.1397 5.5 23.9489 5.5 23.75V17.75C5.5 17.5511 5.42098 17.3603 5.28033 17.2197C5.13968 17.079 4.94891 17 4.75 17ZM7.75 13H5.5V1.75C5.5 1.55109 5.42098 1.36032 5.28033 1.21967C5.13968 1.07902 4.94891 1 4.75 1C4.55109 1 4.36032 1.07902 4.21967 1.21967C4.07902 1.36032 4 1.55109 4 1.75V13H1.75C1.55109 13 1.36032 13.079 1.21967 13.2197C1.07902 13.3603 1 13.5511 1 13.75C1 13.9489 1.07902 14.1397 1.21967 14.2803C1.36032 14.421 1.55109 14.5 1.75 14.5H7.75C7.94891 14.5 8.13968 14.421 8.28033 14.2803C8.42098 14.1397 8.5 13.9489 8.5 13.75C8.5 13.5511 8.42098 13.3603 8.28033 13.2197C8.13968 13.079 7.94891 13 7.75 13ZM16.75 7H14.5V1.75C14.5 1.55109 14.421 1.36032 14.2803 1.21967C14.1397 1.07902 13.9489 1 13.75 1C13.5511 1 13.3603 1.07902 13.2197 1.21967C13.079 1.36032 13 1.55109 13 1.75V7H10.75C10.5511 7 10.3603 7.07902 10.2197 7.21967C10.079 7.36032 10 7.55109 10 7.75C10 7.94891 10.079 8.13968 10.2197 8.28033C10.3603 8.42098 10.5511 8.5 10.75 8.5H16.75C16.9489 8.5 17.1397 8.42098 17.2803 8.28033C17.421 8.13968 17.5 7.94891 17.5 7.75C17.5 7.55109 17.421 7.36032 17.2803 7.21967C17.1397 7.07902 16.9489 7 16.75 7Z" fill="#0C7649" stroke="#0C7649"/>
</svg>
