<svg width="17" height="16" viewBox="0 0 17 16" fill="none" xmlns="http://www.w3.org/2000/svg">
<path d="M9.20588 7.53432V14.8284C9.20588 14.9493 9.15785 15.0653 9.07236 15.1508C8.98686 15.2363 8.87091 15.2843 8.75 15.2843C8.62909 15.2843 8.51314 15.2363 8.42764 15.1508C8.34215 15.0653 8.29412 14.9493 8.29412 14.8284V7.53432C8.29412 7.41341 8.34215 7.29745 8.42764 7.21196C8.51314 7.12646 8.62909 7.07843 8.75 7.07843C8.87091 7.07843 8.98686 7.12646 9.07236 7.21196C9.15785 7.29745 9.20588 7.41341 9.20588 7.53432ZM14.2206 13.1569C14.0997 13.1569 13.9837 13.2049 13.8982 13.2904C13.8127 13.3759 13.7647 13.4918 13.7647 13.6127V14.8284C13.7647 14.9493 13.8127 15.0653 13.8982 15.1508C13.9837 15.2363 14.0997 15.2843 14.2206 15.2843C14.3415 15.2843 14.4575 15.2363 14.5429 15.1508C14.6284 15.0653 14.6765 14.9493 14.6765 14.8284V13.6127C14.6765 13.4918 14.6284 13.3759 14.5429 13.2904C14.4575 13.2049 14.3415 13.1569 14.2206 13.1569ZM16.0441 10.7255H14.6765V1.45588C14.6765 1.33497 14.6284 1.21902 14.5429 1.13352C14.4575 1.04803 14.3415 1 14.2206 1C14.0997 1 13.9837 1.04803 13.8982 1.13352C13.8127 1.21902 13.7647 1.33497 13.7647 1.45588V10.7255H12.3971C12.2762 10.7255 12.1602 10.7735 12.0747 10.859C11.9892 10.9445 11.9412 11.0605 11.9412 11.1814C11.9412 11.3023 11.9892 11.4182 12.0747 11.5037C12.1602 11.5892 12.2762 11.6373 12.3971 11.6373H16.0441C16.165 11.6373 16.281 11.5892 16.3665 11.5037C16.452 11.4182 16.5 11.3023 16.5 11.1814C16.5 11.0605 16.452 10.9445 16.3665 10.859C16.281 10.7735 16.165 10.7255 16.0441 10.7255ZM3.27941 10.7255C3.1585 10.7255 3.04255 10.7735 2.95705 10.859C2.87156 10.9445 2.82353 11.0605 2.82353 11.1814V14.8284C2.82353 14.9493 2.87156 15.0653 2.95705 15.1508C3.04255 15.2363 3.1585 15.2843 3.27941 15.2843C3.40032 15.2843 3.51627 15.2363 3.60177 15.1508C3.68726 15.0653 3.73529 14.9493 3.73529 14.8284V11.1814C3.73529 11.0605 3.68726 10.9445 3.60177 10.859C3.51627 10.7735 3.40032 10.7255 3.27941 10.7255ZM5.10294 8.29412H3.73529V1.45588C3.73529 1.33497 3.68726 1.21902 3.60177 1.13352C3.51627 1.04803 3.40032 1 3.27941 1C3.1585 1 3.04255 1.04803 2.95705 1.13352C2.87156 1.21902 2.82353 1.33497 2.82353 1.45588V8.29412H1.45588C1.33497 8.29412 1.21902 8.34215 1.13352 8.42764C1.04803 8.51314 1 8.62909 1 8.75C1 8.87091 1.04803 8.98687 1.13352 9.07236C1.21902 9.15785 1.33497 9.20588 1.45588 9.20588H5.10294C5.22385 9.20588 5.3398 9.15785 5.4253 9.07236C5.51079 8.98687 5.55882 8.87091 5.55882 8.75C5.55882 8.62909 5.51079 8.51314 5.4253 8.42764C5.3398 8.34215 5.22385 8.29412 5.10294 8.29412ZM10.5735 4.64706H9.20588V1.45588C9.20588 1.33497 9.15785 1.21902 9.07236 1.13352C8.98686 1.04803 8.87091 1 8.75 1C8.62909 1 8.51314 1.04803 8.42764 1.13352C8.34215 1.21902 8.29412 1.33497 8.29412 1.45588V4.64706H6.92647C6.80556 4.64706 6.68961 4.69509 6.60411 4.78058C6.51862 4.86608 6.47059 4.98203 6.47059 5.10294C6.47059 5.22385 6.51862 5.3398 6.60411 5.4253C6.68961 5.51079 6.80556 5.55882 6.92647 5.55882H10.5735C10.6944 5.55882 10.8104 5.51079 10.8959 5.4253C10.9814 5.3398 11.0294 5.22385 11.0294 5.10294C11.0294 4.98203 10.9814 4.86608 10.8959 4.78058C10.8104 4.69509 10.6944 4.64706 10.5735 4.64706Z" fill="#0C7649" stroke="#0C7649"/>
</svg>
