<svg width="31" height="24" viewBox="0 0 31 24" fill="none" xmlns="http://www.w3.org/2000/svg">
<path d="M30.4855 13.7521C30.4855 13.951 30.4065 14.1418 30.2659 14.2824C30.1252 14.4231 29.9345 14.5021 29.7355 14.5021H27.4855V16.7521C27.4855 16.951 27.4065 17.1418 27.2659 17.2824C27.1252 17.4231 26.9345 17.5021 26.7355 17.5021C26.5366 17.5021 26.3459 17.4231 26.2052 17.2824C26.0646 17.1418 25.9855 16.951 25.9855 16.7521V14.5021H23.7355C23.5366 14.5021 23.3459 14.4231 23.2052 14.2824C23.0646 14.1418 22.9855 13.951 22.9855 13.7521C22.9855 13.5532 23.0646 13.3624 23.2052 13.2217C23.3459 13.0811 23.5366 13.0021 23.7355 13.0021H25.9855V10.7521C25.9855 10.5532 26.0646 10.3624 26.2052 10.2217C26.3459 10.0811 26.5366 10.0021 26.7355 10.0021C26.9345 10.0021 27.1252 10.0811 27.2659 10.2217C27.4065 10.3624 27.4855 10.5532 27.4855 10.7521V13.0021H29.7355C29.9345 13.0021 30.1252 13.0811 30.2659 13.2217C30.4065 13.3624 30.4855 13.5532 30.4855 13.7521ZM23.3093 21.2696C23.3762 21.3444 23.4273 21.432 23.4598 21.527C23.4922 21.622 23.5052 21.7225 23.4981 21.8226C23.491 21.9228 23.4638 22.0204 23.4182 22.1099C23.3726 22.1993 23.3095 22.2787 23.2327 22.3433C23.1559 22.4079 23.0669 22.4564 22.9709 22.486C22.875 22.5156 22.7741 22.5256 22.6743 22.5154C22.5744 22.5053 22.4776 22.4752 22.3895 22.427C22.3015 22.3787 22.2241 22.3133 22.1618 22.2346C19.598 19.1833 16.0718 17.5021 12.2355 17.5021C8.39929 17.5021 4.87429 19.1833 2.30929 22.2346C2.17936 22.38 1.99788 22.4691 1.80336 22.483C1.60883 22.4969 1.41654 22.4344 1.26729 22.3089C1.11803 22.1834 1.02353 22.0046 1.00384 21.8106C0.984142 21.6166 1.0408 21.4225 1.16179 21.2696C3.12804 18.9283 5.61054 17.3121 8.36054 16.5333C6.73562 15.6688 5.44646 14.2857 4.69815 12.6041C3.94984 10.9225 3.78535 9.03898 4.23086 7.25312C4.67636 5.46726 5.70627 3.88167 7.15675 2.74859C8.60723 1.6155 10.395 1 12.2355 1C14.0761 1 15.8639 1.6155 17.3143 2.74859C18.7648 3.88167 19.7947 5.46726 20.2402 7.25312C20.6857 9.03898 20.5212 10.9225 19.7729 12.6041C19.0246 14.2857 17.7355 15.6688 16.1105 16.5333C18.8605 17.3121 21.343 18.9283 23.3093 21.2696ZM12.2355 16.0021C13.5706 16.0021 14.8756 15.6062 15.9856 14.8645C17.0957 14.1228 17.9608 13.0686 18.4717 11.8352C18.9826 10.6018 19.1163 9.24459 18.8558 7.93522C18.5954 6.62585 17.9525 5.42311 17.0085 4.47911C16.0645 3.5351 14.8618 2.89223 13.5524 2.63178C12.243 2.37133 10.8858 2.505 9.65243 3.01589C8.41903 3.52678 7.36482 4.39195 6.62312 5.50198C5.88142 6.61201 5.48554 7.91706 5.48554 9.25208C5.48753 11.0417 6.19932 12.7574 7.46476 14.0229C8.7302 15.2883 10.4459 16.0001 12.2355 16.0021Z" fill="#0C7649" stroke="#0C7649"/>
</svg>
