<svg width="30" height="22" viewBox="0 0 30 22" fill="none" xmlns="http://www.w3.org/2000/svg">
<path d="M29.4855 12.7521C29.4855 12.951 29.4065 13.1418 29.2659 13.2824C29.1252 13.4231 28.9345 13.5021 28.7355 13.5021H26.4855V15.7521C26.4855 15.951 26.4065 16.1418 26.2659 16.2824C26.1252 16.4231 25.9345 16.5021 25.7355 16.5021C25.5366 16.5021 25.3459 16.4231 25.2052 16.2824C25.0646 16.1418 24.9855 15.951 24.9855 15.7521V13.5021H22.7355C22.5366 13.5021 22.3459 13.4231 22.2052 13.2824C22.0646 13.1418 21.9855 12.951 21.9855 12.7521C21.9855 12.5532 22.0646 12.3624 22.2052 12.2217C22.3459 12.0811 22.5366 12.0021 22.7355 12.0021H24.9855V9.75208C24.9855 9.55317 25.0646 9.3624 25.2052 9.22175C25.3459 9.0811 25.5366 9.00208 25.7355 9.00208C25.9345 9.00208 26.1252 9.0811 26.2659 9.22175C26.4065 9.3624 26.4855 9.55317 26.4855 9.75208V12.0021H28.7355C28.9345 12.0021 29.1252 12.0811 29.2659 12.2217C29.4065 12.3624 29.4855 12.5532 29.4855 12.7521ZM22.3093 20.2696C22.3762 20.3444 22.4273 20.432 22.4598 20.527C22.4922 20.622 22.5052 20.7225 22.4981 20.8226C22.491 20.9228 22.4638 21.0204 22.4182 21.1099C22.3726 21.1993 22.3095 21.2787 22.2327 21.3433C22.1559 21.4079 22.0669 21.4564 21.9709 21.486C21.875 21.5156 21.7741 21.5256 21.6743 21.5154C21.5744 21.5053 21.4776 21.4752 21.3895 21.427C21.3015 21.3787 21.2241 21.3133 21.1618 21.2346C18.598 18.1833 15.0718 16.5021 11.2355 16.5021C7.39929 16.5021 3.87429 18.1833 1.30929 21.2346C1.17936 21.38 0.997883 21.4691 0.803355 21.483C0.608827 21.4969 0.416545 21.4344 0.267285 21.3089C0.118026 21.1834 0.02353 21.0046 0.00383606 20.8106C-0.0158579 20.6166 0.0407994 20.4225 0.161793 20.2696C2.12804 17.9283 4.61054 16.3121 7.36054 15.5333C5.73562 14.6688 4.44646 13.2857 3.69815 11.6041C2.94984 9.92253 2.78535 8.03898 3.23086 6.25312C3.67636 4.46726 4.70627 2.88167 6.15675 1.74859C7.60723 0.6155 9.39496 0 11.2355 0C13.0761 0 14.8639 0.6155 16.3143 1.74859C17.7648 2.88167 18.7947 4.46726 19.2402 6.25312C19.6857 8.03898 19.5212 9.92253 18.7729 11.6041C18.0246 13.2857 16.7355 14.6688 15.1105 15.5333C17.8605 16.3121 20.343 17.9283 22.3093 20.2696ZM11.2355 15.0021C12.5706 15.0021 13.8756 14.6062 14.9856 13.8645C16.0957 13.1228 16.9608 12.0686 17.4717 10.8352C17.9826 9.60179 18.1163 8.24459 17.8558 6.93522C17.5954 5.62585 16.9525 4.42311 16.0085 3.47911C15.0645 2.5351 13.8618 1.89223 12.5524 1.63178C11.243 1.37133 9.88583 1.505 8.65243 2.01589C7.41903 2.52678 6.36482 3.39195 5.62312 4.50198C4.88142 5.61201 4.48554 6.91706 4.48554 8.25208C4.48753 10.0417 5.19932 11.7574 6.46476 13.0229C7.7302 14.2883 9.44594 15.0001 11.2355 15.0021Z" fill="#9B9B9B"/>
</svg>
