<svg width="22" height="16" viewBox="0 0 22 16" fill="none" xmlns="http://www.w3.org/2000/svg">
<path d="M21.49 9.29412C21.49 9.4391 21.4324 9.57813 21.3299 9.68065C21.2274 9.78316 21.0883 9.84075 20.9434 9.84075H19.3035V11.4806C19.3035 11.6256 19.2459 11.7646 19.1434 11.8671C19.0409 11.9697 18.9019 12.0272 18.7569 12.0272C18.6119 12.0272 18.4729 11.9697 18.3704 11.8671C18.2678 11.7646 18.2103 11.6256 18.2103 11.4806V9.84075H16.5704C16.4254 9.84075 16.2864 9.78316 16.1839 9.68065C16.0814 9.57813 16.0238 9.4391 16.0238 9.29412C16.0238 9.14915 16.0814 9.01011 16.1839 8.9076C16.2864 8.80509 16.4254 8.7475 16.5704 8.7475H18.2103V7.10763C18.2103 6.96265 18.2678 6.82362 18.3704 6.72111C18.4729 6.61859 18.6119 6.561 18.7569 6.561C18.9019 6.561 19.0409 6.61859 19.1434 6.72111C19.2459 6.82362 19.3035 6.96265 19.3035 7.10763V8.7475H20.9434C21.0883 8.7475 21.2274 8.80509 21.3299 8.9076C21.4324 9.01011 21.49 9.14915 21.49 9.29412ZM16.2597 14.7731C16.3085 14.8277 16.3458 14.8915 16.3694 14.9607C16.393 15.0299 16.4025 15.1032 16.3973 15.1762C16.3921 15.2492 16.3723 15.3204 16.3391 15.3855C16.3059 15.4507 16.2599 15.5086 16.2039 15.5557C16.1479 15.6028 16.083 15.6381 16.0131 15.6597C15.9432 15.6812 15.8697 15.6885 15.7969 15.6811C15.7241 15.6738 15.6535 15.6518 15.5894 15.6167C15.5252 15.5815 15.4688 15.5338 15.4234 15.4764C13.5548 13.2526 10.9848 12.0272 8.18882 12.0272C5.39284 12.0272 2.82371 13.2526 0.954254 15.4764C0.859553 15.5824 0.727289 15.6474 0.585511 15.6575C0.443732 15.6676 0.303591 15.6221 0.194806 15.5306C0.0860214 15.4391 0.0171494 15.3089 0.00279584 15.1675C-0.0115578 15.026 0.0297359 14.8846 0.11792 14.7731C1.55099 13.0667 3.36031 11.8888 5.3646 11.3212C4.1803 10.6911 3.24072 9.68307 2.69533 8.45747C2.14994 7.23186 2.03005 5.85907 2.35475 4.55748C2.67945 3.25589 3.43008 2.10026 4.48724 1.27443C5.54439 0.448597 6.84734 0 8.18882 0C9.5303 0 10.8333 0.448597 11.8904 1.27443C12.9476 2.10026 13.6982 3.25589 14.0229 4.55748C14.3476 5.85907 14.2277 7.23186 13.6823 8.45747C13.1369 9.68307 12.1973 10.6911 11.013 11.3212C13.0173 11.8888 14.8267 13.0667 16.2597 14.7731ZM8.18882 10.934C9.16183 10.934 10.113 10.6455 10.922 10.1049C11.731 9.56432 12.3616 8.79598 12.734 7.89704C13.1063 6.99809 13.2037 6.00892 13.0139 5.05461C12.8241 4.1003 12.3555 3.22371 11.6675 2.53569C10.9795 1.84766 10.1029 1.37912 9.14859 1.18929C8.19428 0.999468 7.20511 1.09689 6.30617 1.46925C5.40722 1.8416 4.63888 2.47216 4.09831 3.28119C3.55774 4.09021 3.26921 5.04137 3.26921 6.01438C3.27065 7.3187 3.78943 8.56918 4.71173 9.49148C5.63402 10.4138 6.8845 10.9326 8.18882 10.934Z" fill="#9B9B9B"/>
</svg>
