<svg width="20" height="15" viewBox="0 0 20 15" fill="none" xmlns="http://www.w3.org/2000/svg">
<path d="M19.49 8.99667C19.49 9.1214 19.4404 9.24103 19.3522 9.32923C19.264 9.41743 19.1444 9.46698 19.0197 9.46698H17.6087V10.8779C17.6087 11.0027 17.5592 11.1223 17.471 11.2105C17.3828 11.2987 17.2632 11.3482 17.1384 11.3482C17.0137 11.3482 16.8941 11.2987 16.8059 11.2105C16.7177 11.1223 16.6681 11.0027 16.6681 10.8779V9.46698H15.2572C15.1324 9.46698 15.0128 9.41743 14.9246 9.32923C14.8364 9.24103 14.7868 9.1214 14.7868 8.99667C14.7868 8.87193 14.8364 8.7523 14.9246 8.6641C15.0128 8.5759 15.1324 8.52635 15.2572 8.52635H16.6681V7.1154C16.6681 6.99067 16.7177 6.87104 16.8059 6.78284C16.8941 6.69464 17.0137 6.64509 17.1384 6.64509C17.2632 6.64509 17.3828 6.69464 17.471 6.78284C17.5592 6.87104 17.6087 6.99067 17.6087 7.1154V8.52635H19.0197C19.1444 8.52635 19.264 8.5759 19.3522 8.6641C19.4404 8.7523 19.49 8.87193 19.49 8.99667ZM14.9899 13.7108C15.0318 13.7577 15.0639 13.8126 15.0842 13.8722C15.1046 13.9318 15.1127 13.9948 15.1083 14.0576C15.1038 14.1204 15.0868 14.1816 15.0582 14.2377C15.0296 14.2938 14.99 14.3436 14.9418 14.3841C14.8937 14.4246 14.8379 14.455 14.7777 14.4736C14.7175 14.4921 14.6543 14.4984 14.5916 14.4921C14.529 14.4857 14.4683 14.4668 14.4131 14.4366C14.3579 14.4063 14.3093 14.3653 14.2703 14.3159C12.6626 12.4025 10.4513 11.3482 8.04566 11.3482C5.64 11.3482 3.42952 12.4025 1.82104 14.3159C1.73956 14.4071 1.62576 14.463 1.50377 14.4717C1.38179 14.4804 1.26121 14.4412 1.16761 14.3625C1.07401 14.2838 1.01476 14.1717 1.00241 14.0501C0.990056 13.9284 1.02558 13.8067 1.10146 13.7108C2.33447 12.2426 3.89121 11.2291 5.6157 10.7408C4.59673 10.1986 3.78832 9.33132 3.31906 8.2768C2.8498 7.22229 2.74666 6.04114 3.02603 4.92125C3.3054 3.80136 3.95124 2.80706 4.86082 2.09652C5.77039 1.38597 6.89145 1 8.04566 1C9.19987 1 10.3209 1.38597 11.2305 2.09652C12.1401 2.80706 12.7859 3.80136 13.0653 4.92125C13.3447 6.04114 13.2415 7.22229 12.7723 8.2768C12.303 9.33132 11.4946 10.1986 10.4756 10.7408C12.2001 11.2291 13.7569 12.2426 14.9899 13.7108ZM8.04566 10.4076C8.88284 10.4076 9.70121 10.1594 10.3973 9.69425C11.0934 9.22914 11.6359 8.56806 11.9563 7.79461C12.2767 7.02116 12.3605 6.17008 12.1972 5.34899C12.0338 4.5279 11.6307 3.77368 11.0387 3.1817C10.4468 2.58973 9.69254 2.18659 8.87145 2.02327C8.05036 1.85994 7.19928 1.94377 6.42583 2.26414C5.65238 2.58451 4.9913 3.12705 4.52619 3.82313C4.06108 4.51922 3.81283 5.3376 3.81283 6.17477C3.81407 7.29701 4.26043 8.37293 5.05397 9.16647C5.84751 9.96001 6.92343 10.4064 8.04566 10.4076Z" fill="#0C7649" stroke="#0C7649"/>
</svg>
