<svg width="39" height="39" viewBox="0 0 39 39" fill="none" xmlns="http://www.w3.org/2000/svg">
<path d="M35.1792 32.2969C32.859 28.2857 29.2835 25.4094 25.1108 24.0459C27.1748 22.8172 28.7784 20.9449 29.6754 18.7166C30.5723 16.4883 30.713 14.0272 30.0758 11.7112C29.4386 9.3952 28.0588 7.3524 26.1482 5.8965C24.2377 4.44059 21.9021 3.6521 19.5 3.6521C17.0979 3.6521 14.7623 4.44059 12.8518 5.8965C10.9412 7.3524 9.56139 9.3952 8.92421 11.7112C8.28702 14.0272 8.4277 16.4883 9.32464 18.7166C10.2216 20.9449 11.8252 22.8172 13.8892 24.0459C9.71648 25.4079 6.14098 28.2841 3.82078 32.2969C3.7357 32.4356 3.67926 32.59 3.6548 32.7509C3.63034 32.9118 3.63836 33.076 3.67838 33.2337C3.71839 33.3915 3.7896 33.5396 3.8878 33.6694C3.986 33.7992 4.1092 33.908 4.25012 33.9894C4.39105 34.0708 4.54686 34.1231 4.70835 34.1433C4.86984 34.1636 5.03374 34.1512 5.19038 34.1071C5.34703 34.0629 5.49324 33.9878 5.6204 33.8862C5.74756 33.7847 5.85308 33.6586 5.93074 33.5156C8.8009 28.5553 13.8739 25.5937 19.5 25.5937C25.1261 25.5937 30.1991 28.5553 33.0693 33.5156C33.1469 33.6586 33.2524 33.7847 33.3796 33.8862C33.5068 33.9878 33.653 34.0629 33.8096 34.1071C33.9663 34.1512 34.1302 34.1636 34.2917 34.1433C34.4531 34.1231 34.6089 34.0708 34.7499 33.9894C34.8908 33.908 35.014 33.7992 35.1122 33.6694C35.2104 33.5396 35.2816 33.3915 35.3216 33.2337C35.3616 33.076 35.3697 32.9118 35.3452 32.7509C35.3207 32.59 35.2643 32.4356 35.1792 32.2969ZM10.9688 14.625C10.9688 12.9377 11.4691 11.2882 12.4065 9.88529C13.344 8.48233 14.6764 7.38886 16.2352 6.74315C17.7941 6.09744 19.5095 5.92849 21.1644 6.25767C22.8193 6.58685 24.3394 7.39937 25.5325 8.59249C26.7256 9.78561 27.5381 11.3057 27.8673 12.9606C28.1965 14.6155 28.0276 16.3309 27.3818 17.8898C26.7361 19.4486 25.6427 20.781 24.2397 21.7185C22.8368 22.6559 21.1873 23.1562 19.5 23.1562C17.2381 23.1538 15.0696 22.2542 13.4702 20.6548C11.8708 19.0554 10.9712 16.8869 10.9688 14.625Z" fill="#EBE6E6"/>
</svg>
