<svg width="26" height="25" viewBox="0 0 26 25" fill="none" xmlns="http://www.w3.org/2000/svg">
<path d="M25.6487 23.625C23.6724 20.21 20.5699 17.8137 16.9649 16.7975C18.7176 15.9066 20.1192 14.4513 20.9436 12.6663C21.768 10.8814 21.9672 8.87083 21.5092 6.95881C21.0511 5.04678 19.9624 3.34476 18.4186 2.12717C16.8749 0.909586 14.9661 0.247406 12.9999 0.247406C11.0338 0.247406 9.12498 0.909586 7.58124 2.12717C6.03749 3.34476 4.94881 5.04678 4.49074 6.95881C4.03266 8.87083 4.23189 10.8814 5.05631 12.6663C5.88072 14.4513 7.28226 15.9066 9.03494 16.7975C5.42994 17.8125 2.32744 20.2087 0.351194 23.625C0.296929 23.7104 0.260491 23.8058 0.244075 23.9056C0.227658 24.0054 0.231601 24.1075 0.255666 24.2058C0.279731 24.304 0.323421 24.3964 0.384108 24.4773C0.444794 24.5582 0.521224 24.6261 0.608798 24.6767C0.696371 24.7273 0.79328 24.7597 0.893694 24.7719C0.994107 24.7841 1.09595 24.7758 1.1931 24.7476C1.29024 24.7195 1.38068 24.6719 1.45898 24.6079C1.53728 24.5438 1.60181 24.4646 1.64869 24.375C4.04994 20.2262 8.29244 17.75 12.9999 17.75C17.7074 17.75 21.9499 20.2262 24.3512 24.375C24.3981 24.4646 24.4626 24.5438 24.5409 24.6079C24.6192 24.6719 24.7096 24.7195 24.8068 24.7476C24.9039 24.7758 25.0058 24.7841 25.1062 24.7719C25.2066 24.7597 25.3035 24.7273 25.3911 24.6767C25.4787 24.6261 25.5551 24.5582 25.6158 24.4773C25.6765 24.3964 25.7202 24.304 25.7442 24.2058C25.7683 24.1075 25.7722 24.0054 25.7558 23.9056C25.7394 23.8058 25.703 23.7104 25.6487 23.625ZM5.74994 8.99999C5.74994 7.56607 6.17515 6.16436 6.97179 4.9721C7.76843 3.77985 8.90072 2.8506 10.2255 2.30186C11.5503 1.75313 13.008 1.60955 14.4143 1.88929C15.8207 2.16904 17.1125 2.85953 18.1265 3.87346C19.1404 4.88739 19.8309 6.17922 20.1106 7.58558C20.3904 8.99195 20.2468 10.4497 19.6981 11.7744C19.1493 13.0992 18.2201 14.2315 17.0278 15.0281C15.8356 15.8248 14.4339 16.25 12.9999 16.25C11.0778 16.2477 9.23512 15.4831 7.87598 14.124C6.51684 12.7648 5.75226 10.9221 5.74994 8.99999Z" fill="#ECECEC"/>
</svg>
